<?xml version="1.0" encoding="iso-8859-1"?>
<!-- Generator: Adobe Illustrator 19.0.0, SVG Export Plug-In . SVG Version: 6.00 Build 0)  -->
<svg version="1.1" id="Layer_1" xmlns="http://www.w3.org/2000/svg" xmlns:xlink="http://www.w3.org/1999/xlink" x="0px" y="0px"
	 viewBox="0 0 512 512" style="enable-background:new 0 0 512 512;" xml:space="preserve">
<path style="fill:#5D9BEB;" d="M512,256.006C512,397.402,397.394,512.004,256.004,512C114.606,512.004,0,397.402,0,256.006
	C-0.007,114.61,114.606,0,256.004,0C397.394,0,512,114.614,512,256.006z"/>
<path style="fill:#4988DB;" d="M511.934,258.58c-0.496-0.501-128.004-128.011-128.507-128.506
	C350.907,97.168,305.81,76.717,256,76.717c-98.855,0-179.284,80.428-179.284,179.283c0,49.807,20.45,94.902,53.355,127.424
	c0.495,0.502,0.992,0.998,1.494,1.494c0.496,0.502,125.021,125.026,125.523,125.524c0.495,0.5,0.99,0.994,1.492,1.491
	C397.917,510.558,510.555,397.921,511.934,258.58z"/>
<g>
	<path style="fill:#F4F6F9;" d="M325.602,198.249l-106.77,99.658l-32.252-32.252c-2.918-2.918-7.645-2.918-10.563,0
		c-2.918,2.918-2.918,7.645,0,10.563l37.35,37.355c1.459,1.455,3.371,2.189,5.282,2.189c1.831,0,3.662-0.668,5.1-2.01
		L335.802,209.17c3.013-2.816,3.173-7.543,0.365-10.556C333.349,195.594,328.629,195.426,325.602,198.249z"/>
	<path style="fill:#F4F6F9;" d="M256,76.717c-98.855,0-179.283,80.428-179.283,179.283S157.145,435.283,256,435.283
		S435.283,354.855,435.283,256S354.855,76.717,256,76.717z M256,420.342c-90.619,0-164.342-73.724-164.342-164.342
		S165.381,91.658,256,91.658S420.342,165.381,420.342,256S346.619,420.342,256,420.342z"/>
</g>
<g>
</g>
<g>
</g>
<g>
</g>
<g>
</g>
<g>
</g>
<g>
</g>
<g>
</g>
<g>
</g>
<g>
</g>
<g>
</g>
<g>
</g>
<g>
</g>
<g>
</g>
<g>
</g>
<g>
</g>
</svg>
