<svg width="28" height="32" viewBox="0 0 28 32" fill="none" xmlns="http://www.w3.org/2000/svg">
<path d="M8.4 25.6C6.86 25.6 5.614 27.04 5.614 28.8C5.614 30.56 6.86 32 8.4 32C9.94 32 11.2 30.56 11.2 28.8C11.2 27.04 9.94 25.6 8.4 25.6ZM0 0V3.2H2.8L7.84 15.344L5.95 19.264C5.726 19.712 5.6 20.24 5.6 20.8C5.6 22.56 6.86 24 8.4 24H25.2V20.8H8.988C8.792 20.8 8.638 20.624 8.638 20.4L8.68 20.208L9.94 17.6H20.37C21.42 17.6 22.344 16.944 22.82 15.952L27.832 5.568C27.944 5.344 28 5.072 28 4.8C28 3.92 27.37 3.2 26.6 3.2H5.894L4.578 0H0ZM22.4 25.6C20.86 25.6 19.614 27.04 19.614 28.8C19.614 30.56 20.86 32 22.4 32C23.94 32 25.2 30.56 25.2 28.8C25.2 27.04 23.94 25.6 22.4 25.6Z" fill="white"/>
</svg>
