<svg width="44" height="42" viewBox="0 0 44 42" fill="none" xmlns="http://www.w3.org/2000/svg">
<path d="M31.0662 25.4502C28.6514 23.4445 25.4975 22.2305 22.0428 22.2305C18.5881 22.2305 15.4342 23.4445 13.0151 25.4543C12.9483 25.5118 12.9074 25.5917 12.901 25.6774C12.8946 25.763 12.9231 25.8477 12.9807 25.9137L14.5276 27.6732C14.6522 27.8127 14.8713 27.8291 15.0174 27.7102C16.8909 26.1352 19.3487 25.1836 22.0428 25.1836C24.7369 25.1836 27.1948 26.1352 29.0682 27.7061C29.2143 27.825 29.4334 27.8086 29.558 27.6691L31.1049 25.9096C31.2252 25.7742 31.208 25.5691 31.0662 25.4502ZM36.1108 19.7039C32.2994 16.6729 27.3967 14.8477 22.0428 14.8477C16.6889 14.8477 11.7862 16.6729 7.97054 19.7039C7.90074 19.7601 7.85705 19.8404 7.849 19.9272C7.84095 20.014 7.86919 20.1004 7.92757 20.1674L9.47445 21.927C9.59476 22.0664 9.8139 22.0828 9.9557 21.968C13.2342 19.3676 17.4494 17.8008 22.0428 17.8008C26.6362 17.8008 30.8514 19.3676 34.1256 21.968C34.2717 22.0828 34.4866 22.0664 34.6069 21.927L36.1537 20.1674C36.2741 20.0279 36.2569 19.8187 36.1108 19.7039ZM41.1252 14.0027C35.9088 9.91758 29.2315 7.46484 21.9569 7.46484C14.7295 7.46484 8.09515 9.88477 2.89164 13.9207C2.85589 13.9481 2.82625 13.9821 2.80446 14.0206C2.78267 14.0591 2.76918 14.1014 2.76477 14.145C2.76037 14.1886 2.76514 14.2325 2.77881 14.2743C2.79248 14.3161 2.81477 14.3548 2.84437 14.3883L4.39125 16.1479C4.51156 16.2832 4.7264 16.3037 4.8682 16.193C9.5389 12.5795 15.4815 10.418 21.9569 10.418C28.4795 10.418 34.4608 12.6123 39.1444 16.2709C39.2905 16.3857 39.5053 16.3652 39.6256 16.2258L41.1725 14.4662C41.2971 14.3268 41.2756 14.1176 41.1252 14.0027ZM19.2498 31.9102C19.2498 32.6063 19.5396 33.274 20.0553 33.7663C20.571 34.2586 21.2705 34.5352 21.9998 34.5352C22.7292 34.5352 23.4287 34.2586 23.9444 33.7663C24.4601 33.274 24.7498 32.6063 24.7498 31.9102C24.7498 31.214 24.4601 30.5463 23.9444 30.054C23.4287 29.5617 22.7292 29.2852 21.9998 29.2852C21.2705 29.2852 20.571 29.5617 20.0553 30.054C19.5396 30.5463 19.2498 31.214 19.2498 31.9102Z" fill="black"/>
</svg>
