<svg width="31" height="31" viewBox="0 0 31 31" fill="none" xmlns="http://www.w3.org/2000/svg">
<g clip-path="url(#clip0_1057_2725)">
<path d="M21.1189 16.6609C22.2814 16.4672 23.4439 15.8859 24.2189 14.9172L30.2252 8.91094C31.0002 8.13594 31.0002 6.97344 30.2252 6.19844L30.0314 5.81094L24.2189 11.6234C23.8314 12.0109 23.0564 12.0109 22.4752 11.6234C21.8939 11.2359 22.0877 10.4609 22.4752 9.87969L27.5127 4.84219C27.9002 4.45469 27.9002 3.67969 27.5127 3.09844C27.1252 2.71094 26.3502 2.71094 25.7689 3.09844L20.7314 8.13594C20.3439 8.52344 19.5689 8.52344 18.9877 8.13594C18.6002 7.74844 18.6002 6.97344 18.9877 6.39219L24.8002 0.579688L24.6064 0.385938C23.8314 -0.389062 22.6689 -0.389062 21.8939 0.385938L15.8877 6.77969C15.1127 7.55469 14.5314 8.71719 14.3377 9.87969L4.84395 0.579688C4.06895 -0.195312 2.90645 -0.00156251 2.3252 0.579688L1.9377 0.967188C-0.774805 3.67969 0.193945 9.10469 4.84395 13.7547L6.39395 15.3047C7.16895 16.0797 8.1377 16.6609 9.3002 16.8547C8.33145 17.6297 7.7502 18.4047 7.7502 18.4047L1.1627 24.9922C-0.193555 26.3484 -0.193555 28.6734 1.1627 30.0297C2.51895 31.3859 4.84395 31.3859 6.2002 30.0297L12.5939 23.2484C12.9814 22.8609 13.9502 21.6984 15.1127 20.3422C15.6939 21.1172 16.0814 21.5047 16.0814 21.5047L24.4127 29.8359C25.7689 31.1922 28.0939 31.1922 29.4502 29.8359C30.8064 28.4797 30.8064 26.1547 29.4502 24.7984L21.1189 16.6609Z" fill="black"/>
</g>
<defs>
<clipPath id="clip0_1057_2725">
<rect width="31" height="31" fill="white"/>
</clipPath>
</defs>
</svg>
