<svg width="36" height="36" viewBox="0 0 36 36" fill="none" xmlns="http://www.w3.org/2000/svg">
<path d="M29.25 22.5H22.5V20.25H29.25V22.5Z" fill="black"/>
<path d="M33.75 31.5H27V29.25H33.75V31.5Z" fill="black"/>
<path d="M31.5 27H24.75V24.75H31.5V27Z" fill="black"/>
<path d="M19.1283 22.5C19.1204 21.5507 18.8672 20.6196 18.3933 19.7971C17.9195 18.9745 17.241 18.2884 16.4238 17.8054L24.7499 3.375L22.8037 2.25L14.2796 17.0168C13.2334 16.783 12.1454 16.8154 11.115 17.1108C10.0845 17.4061 9.14463 17.9552 8.38119 18.7076C4.16919 22.77 4.49544 32.2673 4.51119 32.67C4.52282 32.9605 4.64646 33.2352 4.85619 33.4366C5.06593 33.6379 5.34546 33.7502 5.63619 33.75H22.5011C22.7372 33.75 22.9673 33.6757 23.1589 33.5376C23.3504 33.3996 23.4937 33.2048 23.5683 32.9808C23.643 32.7568 23.6453 32.5149 23.5749 32.2896C23.5045 32.0642 23.365 31.8667 23.1761 31.725C19.1936 28.737 19.1283 22.5607 19.1283 22.5ZM13.4212 19.1216C14.3216 19.1315 15.1835 19.4882 15.8277 20.1174C16.4718 20.7467 16.8485 21.6001 16.8794 22.5C16.8794 22.5427 16.8817 22.734 16.8986 23.0276L10.2611 20.0756C10.6983 19.7151 11.2028 19.4451 11.7453 19.2813C12.2878 19.1175 12.8575 19.0632 13.4212 19.1216ZM17.3812 31.5C16.482 30.5844 15.9088 29.3985 15.7499 28.125H13.4999C13.5805 29.3223 13.9545 30.4814 14.5889 31.5H12.0881C11.6254 30.04 11.3439 28.5287 11.2499 27H8.99994C9.07249 28.5241 9.32358 30.0344 9.74807 31.5H6.74994C6.78482 29.4345 7.07619 24.8715 8.77832 21.8779L17.2529 25.6466C17.6601 27.7608 18.5282 29.7594 19.7954 31.5H17.3812Z" fill="black"/>
</svg>
