<svg width="15" height="27" viewBox="0 0 15 27" fill="none" xmlns="http://www.w3.org/2000/svg">
<path d="M7.6964 0.552734C3.92433 0.552734 0.873535 4.54728 0.873535 9.48622C0.873535 16.1863 7.6964 26.077 7.6964 26.077C7.6964 26.077 14.5193 16.1863 14.5193 9.48622C14.5193 4.54728 11.4685 0.552734 7.6964 0.552734ZM7.6964 12.6768C7.05014 12.6768 6.43035 12.3406 5.97337 11.7423C5.51639 11.1439 5.25966 10.3324 5.25966 9.48622C5.25966 8.64004 5.51639 7.82852 5.97337 7.23018C6.43035 6.63184 7.05014 6.29569 7.6964 6.29569C8.34267 6.29569 8.96246 6.63184 9.41944 7.23018C9.87641 7.82852 10.1331 8.64004 10.1331 9.48622C10.1331 10.3324 9.87641 11.1439 9.41944 11.7423C8.96246 12.3406 8.34267 12.6768 7.6964 12.6768Z" fill="#226CFD"/>
</svg>
