<svg width="51" height="42" viewBox="0 0 51 42" fill="none" xmlns="http://www.w3.org/2000/svg">
<path d="M22.3125 41C22.3125 41 19.125 41 19.125 37.5833C19.125 34.1667 22.3125 23.9167 35.0625 23.9167C47.8125 23.9167 51 34.1667 51 37.5833C51 41 47.8125 41 47.8125 41H22.3125ZM35.0625 20.5C37.5986 20.5 40.0309 19.4201 41.8242 17.4978C43.6175 15.5756 44.625 12.9685 44.625 10.25C44.625 7.53153 43.6175 4.9244 41.8242 3.00216C40.0309 1.07991 37.5986 0 35.0625 0C32.5264 0 30.0941 1.07991 28.3008 3.00216C26.5075 4.9244 25.5 7.53153 25.5 10.25C25.5 12.9685 26.5075 15.5756 28.3008 17.4978C30.0941 19.4201 32.5264 20.5 35.0625 20.5V20.5Z" fill="black"/>
<path fill-rule="evenodd" clip-rule="evenodd" d="M16.626 41.0008C16.1535 39.9342 15.9178 38.7647 15.9375 37.5841C15.9375 32.9546 18.105 28.1883 22.1085 24.8741C20.1102 24.2142 18.0283 23.8914 15.9375 23.9175C3.1875 23.9175 0 34.1675 0 37.5841C0 41.0008 3.1875 41.0008 3.1875 41.0008H16.626Z" fill="black"/>
<path d="M14.3438 20.4993C16.4572 20.4993 18.4841 19.5994 19.9785 17.9976C21.4729 16.3957 22.3125 14.2231 22.3125 11.9577C22.3125 9.69229 21.4729 7.51969 19.9785 5.91781C18.4841 4.31594 16.4572 3.41602 14.3438 3.41602C12.2303 3.41602 10.2034 4.31594 8.70899 5.91781C7.21456 7.51969 6.375 9.69229 6.375 11.9577C6.375 14.2231 7.21456 16.3957 8.70899 17.9976C10.2034 19.5994 12.2303 20.4993 14.3438 20.4993V20.4993Z" fill="black"/>
</svg>
