<svg width="141" height="20" viewBox="0 0 141 20" fill="none" xmlns="http://www.w3.org/2000/svg">
<path fill-rule="evenodd" clip-rule="evenodd" d="M12.0208 0L14.7196 7.60067H23.4532L16.3876 12.2981L19.0864 19.8988L12.0208 15.2013L4.95517 19.8988L7.65399 12.2981L0.588379 7.60067H9.32196L12.0208 0ZM41.2605 0L43.9594 7.60067H52.6929L45.6273 12.2981L48.3261 19.8988L41.2605 15.2013L34.1949 19.8988L36.8937 12.2981L29.8281 7.60067H38.5617L41.2605 0ZM75.7982 7.60067L73.0994 0L70.4006 7.60067H61.667L68.7326 12.2981L66.0338 19.8988L73.0994 15.2013L80.165 19.8988L77.4662 12.2981L84.5318 7.60067H75.7982ZM104.939 0L107.638 7.60067H116.371L109.306 12.2981L112.004 19.8988L104.939 15.2013L97.8731 19.8988L100.572 12.2981L93.5063 7.60067H102.24L104.939 0ZM131.678 7.60067L128.979 0L126.28 7.60067H117.547L124.612 12.2981L121.914 19.8988L128.979 15.2013L136.045 19.8988L133.346 12.2981L140.412 7.60067H131.678Z" fill="#F4DC00"/>
</svg>
