<svg width="20" height="16" viewBox="0 0 20 16" fill="none" xmlns="http://www.w3.org/2000/svg">
<g clip-path="url(#clip0_769_839)">
<path d="M19.25 0H13.25C12.838 0 12.261 0.239 11.97 0.53L4.53103 7.969C4.39076 8.10992 4.31201 8.30067 4.31201 8.4995C4.31201 8.69833 4.39076 8.88907 4.53103 9.03L10.97 15.469C11.111 15.6093 11.3017 15.688 11.5005 15.688C11.6994 15.688 11.8901 15.6093 12.031 15.469L19.47 8.03C19.762 7.738 20 7.162 20 6.75V0.75C19.9995 0.55125 19.9203 0.360791 19.7798 0.220253C19.6392 0.079715 19.4488 0.000527891 19.25 0V0ZM15.5 6C15.303 5.99993 15.1079 5.96106 14.9258 5.88559C14.7438 5.81012 14.5784 5.69954 14.4392 5.56016C14.2999 5.42078 14.1894 5.25533 14.1141 5.07325C14.0387 4.89118 14 4.69605 14 4.499C14.0001 4.30195 14.039 4.10685 14.1144 3.92482C14.1899 3.7428 14.3005 3.57742 14.4399 3.43813C14.5792 3.29884 14.7447 3.18837 14.9268 3.11303C15.1088 3.03768 15.304 2.99893 15.501 2.999C15.899 2.99913 16.2806 3.15735 16.5619 3.43884C16.8432 3.72033 17.0012 4.10204 17.001 4.5C17.0009 4.89796 16.8427 5.27956 16.5612 5.56087C16.2797 5.84217 15.898 6.00013 15.5 6V6Z" fill="black"/>
<path d="M2.00003 8.5L10.5 0H9.25003C8.83803 0 8.26103 0.239 7.97003 0.53L0.531026 7.969C0.390758 8.10992 0.312012 8.30067 0.312012 8.4995C0.312012 8.69833 0.390758 8.88907 0.531026 9.03L6.97003 15.469C7.11095 15.6093 7.30169 15.688 7.50053 15.688C7.69936 15.688 7.8901 15.6093 8.03103 15.469L8.50103 14.999L2.00103 8.499L2.00003 8.5Z" fill="black"/>
</g>
<defs>
<clipPath id="clip0_769_839">
<rect width="20" height="16" fill="white"/>
</clipPath>
</defs>
</svg>
