<svg width="48" height="48" viewBox="0 0 48 48" fill="none" xmlns="http://www.w3.org/2000/svg">
<path d="M5 18.712C5 18.319 5.319 18 5.713 18H19.152C32.322 18 43 28.677 43 41.848C43 41.8883 42.984 41.927 42.9555 41.9555C42.927 41.984 42.8883 42 42.848 42H5V18.712Z" stroke="black" stroke-width="4" stroke-linecap="round" stroke-linejoin="round"/>
<path d="M5 18V8H25" stroke="black" stroke-width="4" stroke-linecap="round" stroke-linejoin="round"/>
<path d="M15 31C17.2091 31 19 29.2091 19 27C19 24.7909 17.2091 23 15 23C12.7909 23 11 24.7909 11 27C11 29.2091 12.7909 31 15 31Z" stroke="black" stroke-width="4"/>
<path d="M5 36H42" stroke="black" stroke-width="4" stroke-linecap="round"/>
<path d="M29 20.0007C30.333 18.0007 34.4 13.6007 38 16.0007C41.5 18.3337 38.5 24.0007 37 26.0007" stroke="black" stroke-width="4" stroke-linecap="round" stroke-linejoin="round"/>
</svg>
