<svg width="54" height="54" viewBox="0 0 54 54" fill="none" xmlns="http://www.w3.org/2000/svg">
<path d="M23.5518 14.5026C23.8622 14.3585 24.209 14.3119 24.5464 14.369C24.8839 14.426 25.1961 14.584 25.442 14.822L28.9101 18.5315L18.1465 28.0282C19.1541 28.2286 19.8665 28.5599 20.4807 28.8464C21.3013 29.2294 21.9494 29.532 23.3829 29.532C24.8164 29.532 25.4646 29.2295 26.2853 28.8464L26.3015 28.8388C27.8868 28.0999 29.3578 27.1373 30.6697 25.9806L33.5225 23.4635L39.1017 29.4302C39.7534 29.3103 40.2156 29.0959 40.7496 28.8467C41.3219 28.5635 41.9187 28.3329 42.5327 28.1577L27.8844 12.4928L27.8451 12.4522C27.109 11.7194 26.166 11.2299 25.1431 11.0497C24.1202 10.8695 23.0667 11.0072 22.1245 11.4444L15.3174 14.6211L16.7446 17.6797L23.5518 14.5026Z" fill="black"/>
<path d="M39.2344 17.7188C41.3313 17.7188 43.0312 16.0188 43.0312 13.9219C43.0312 11.8249 41.3313 10.125 39.2344 10.125C37.1374 10.125 35.4375 11.8249 35.4375 13.9219C35.4375 16.0188 37.1374 17.7188 39.2344 17.7188Z" fill="black"/>
<path d="M45.08 39.6562C42.8975 39.6562 41.7068 40.2119 40.7502 40.6582C39.9294 41.0412 39.2812 41.3438 37.8474 41.3438C36.4135 41.3438 35.7655 41.0413 34.9449 40.6582C33.9881 40.2119 32.7976 39.6562 30.6152 39.6562C28.4327 39.6562 27.2422 40.212 26.2856 40.6582C25.4649 41.0412 24.8168 41.3438 23.3832 41.3438C21.9495 41.3438 21.3015 41.0413 20.481 40.6582C19.5244 40.2119 18.3338 39.6562 16.1515 39.6562C13.9691 39.6562 12.7785 40.212 11.8219 40.6582C11.0012 41.0412 10.3531 41.3438 8.91949 41.3438C7.48586 41.3438 6.83775 41.0413 6.0171 40.6582C5.0605 40.212 3.86986 39.6562 1.6875 39.6562V43.0312C3.12114 43.0312 3.76924 43.3337 4.58989 43.7168C5.5465 44.1631 6.73713 44.7188 8.91949 44.7188C11.1019 44.7188 12.2925 44.163 13.2491 43.7168C14.0697 43.3338 14.7178 43.0312 16.1515 43.0312C17.5851 43.0312 18.2331 43.3337 19.0537 43.7168C20.0103 44.1631 21.2008 44.7188 23.3832 44.7188C25.5655 44.7188 26.7562 44.163 27.7128 43.7168C28.5334 43.3338 29.1816 43.0312 30.6152 43.0312C32.0487 43.0312 32.697 43.3337 33.5177 43.7168C34.4744 44.1631 35.6649 44.7188 37.8474 44.7188C40.0298 44.7188 41.2206 44.1631 42.1773 43.7168C42.9979 43.3338 43.6462 43.0312 45.08 43.0312C46.5137 43.0312 47.162 43.3337 47.9826 43.7168C48.9394 44.1632 50.13 44.7188 52.3125 44.7188V41.3438C50.8788 41.3438 50.2304 41.0413 49.4099 40.6582C48.4531 40.2119 47.2624 39.6562 45.08 39.6562V39.6562Z" fill="black"/>
<path d="M52.0281 32.9019C50.7898 32.8641 50.1744 32.5776 49.4104 32.221C48.4964 31.7945 47.3668 31.2697 45.3653 31.2235C45.2716 31.2214 45.1781 31.219 45.0806 31.219C44.983 31.219 44.8895 31.2214 44.7958 31.2235C42.7943 31.2697 41.6647 31.7945 40.7509 32.221C39.9866 32.5776 39.3713 32.8644 38.1329 32.9019C38.0413 32.9047 37.9469 32.9065 37.8482 32.9065C37.7494 32.9065 37.6549 32.9047 37.5634 32.9019C36.3251 32.8641 35.7098 32.5776 34.9458 32.221C34.0319 31.7946 32.9023 31.2698 30.9009 31.2235C30.8072 31.2214 30.7138 31.219 30.6162 31.219C30.5185 31.219 30.4252 31.2214 30.3314 31.2235C28.33 31.2697 27.2004 31.7946 26.2866 32.221C25.5226 32.5776 24.9072 32.8644 23.669 32.9019C23.5774 32.9047 23.483 32.9065 23.3843 32.9065C23.2856 32.9065 23.1912 32.9047 23.0995 32.9019C21.8614 32.8641 21.2461 32.5776 20.4822 32.221C19.5684 31.7946 18.4389 31.2697 16.4376 31.2235C16.369 31.2216 16.3005 31.2205 16.2319 31.22C16.205 31.22 16.1792 31.2188 16.1525 31.2188C16.0548 31.2188 15.9614 31.2212 15.8677 31.2233C13.8665 31.2695 12.7368 31.7944 11.823 32.2208C11.0589 32.5774 10.4437 32.8642 9.20548 32.9017C9.11383 32.9045 9.01944 32.9063 8.92072 32.9063C8.822 32.9063 8.72761 32.9045 8.63595 32.9017C7.39691 32.8643 6.78202 32.5776 6.01748 32.2209C5.1037 31.7945 3.97413 31.2696 1.97275 31.2234C1.87899 31.2213 1.78555 31.2189 1.68799 31.2189V34.5939C3.12163 34.5939 3.76973 34.8963 4.59038 35.2794C5.54698 35.7257 6.73762 36.2814 8.91998 36.2814C11.1023 36.2814 12.293 35.7256 13.2496 35.2794C14.0702 34.8964 14.7183 34.5939 16.152 34.5939C17.5856 34.5939 18.2336 34.8963 19.0542 35.2794C20.0108 35.7257 21.2013 36.2814 23.3836 36.2814C25.566 36.2814 26.7566 35.7256 27.7132 35.2794C28.5339 34.8964 29.1821 34.5939 30.6156 34.5939C32.0492 34.5939 32.6975 34.8963 33.5181 35.2794C34.4748 35.7257 35.6654 36.2814 37.8478 36.2814C40.0303 36.2814 41.221 35.7257 42.1778 35.2794C42.9984 34.8964 43.6467 34.5939 45.0805 34.5939C46.5142 34.5939 47.1625 34.8963 47.9831 35.2794C48.9399 35.7259 50.1305 36.2814 52.313 36.2814V32.9065C52.2141 32.9065 52.1197 32.9047 52.0281 32.9019V32.9019Z" fill="black"/>
</svg>
