<svg width="48" height="48" viewBox="0 0 48 48" fill="none" xmlns="http://www.w3.org/2000/svg">
<path d="M20 22.666H24V25.3327H20V22.666Z" fill="black"/>
<path d="M35.2665 18.8947C32.9018 15.0251 29.6758 11.7535 25.8398 9.3347C24.0677 8.21155 22.0476 7.53929 19.9558 7.3766C17.8641 7.2139 15.7643 7.56573 13.8398 8.40136C12.1565 9.19537 10.6918 10.3872 9.57207 11.8739C8.45239 13.3606 7.71142 15.0976 7.41317 16.9347C7.3065 17.5614 7.2265 18.1614 7.1465 18.748C5.89816 18.9504 4.76234 19.5897 3.94175 20.552C3.12115 21.5142 2.66918 22.7367 2.6665 24.0014V32.1747C2.6665 32.8819 2.94746 33.5602 3.44755 34.0603C3.94765 34.5604 4.62593 34.8414 5.33317 34.8414V24.0014C5.33317 23.2941 5.61412 22.6158 6.11422 22.1157C6.61432 21.6156 7.29259 21.3347 7.99984 21.3347H32.9732C35.5429 21.3382 38.0064 22.3606 39.8235 24.1777C41.6406 25.9948 42.663 28.4583 42.6665 31.028V32.0014H39.9998C39.4367 30.6282 38.3877 29.5104 37.053 28.8613C35.7183 28.2122 34.1913 28.0773 32.7635 28.4822C31.3356 28.8872 30.1069 29.8037 29.3117 31.0568C28.5164 32.31 28.2104 33.812 28.4521 35.2764C28.6937 36.7407 29.466 38.0649 30.6216 38.9961C31.7773 39.9274 33.2354 40.4005 34.7176 40.3253C36.1999 40.2501 37.6025 39.6318 38.658 38.5883C39.7134 37.5448 40.3477 36.1493 40.4398 34.668H42.6665C43.3737 34.668 44.052 34.3871 44.5521 33.887C45.0522 33.3869 45.3332 32.7086 45.3332 32.0014V31.028C45.3278 28.1506 44.3197 25.365 42.4824 23.1505C40.6451 20.936 38.0935 19.4311 35.2665 18.8947ZM14.6665 18.668H9.23984C9.23984 18.2547 9.35984 17.828 9.43984 17.3347C9.6702 15.87 10.2714 14.4885 11.1862 13.3217C12.101 12.1548 13.2991 11.2413 14.6665 10.668V18.668ZM17.3332 18.668V10.108C19.8224 9.78478 22.347 10.3311 24.4798 11.6547C27.3915 13.4683 29.9045 15.8543 31.8665 18.668H17.3332ZM34.3998 37.8414C33.7406 37.8414 33.0961 37.6459 32.5479 37.2796C31.9998 36.9133 31.5725 36.3927 31.3202 35.7836C31.0679 35.1746 31.0019 34.5043 31.1306 33.8577C31.2592 33.2111 31.5766 32.6172 32.0428 32.151C32.509 31.6848 33.1029 31.3674 33.7495 31.2387C34.3961 31.1101 35.0664 31.1761 35.6754 31.4284C36.2845 31.6807 36.8051 32.108 37.1714 32.6561C37.5377 33.2043 37.7332 33.8488 37.7332 34.508C37.7332 35.3921 37.382 36.2399 36.7569 36.865C36.1317 37.4902 35.2839 37.8414 34.3998 37.8414Z" fill="black"/>
<path d="M18.893 32.0002C18.3299 30.6271 17.2809 29.5093 15.9462 28.8602C14.6115 28.2111 13.0845 28.0762 11.6567 28.4811C10.2288 28.8861 9.00006 29.8026 8.20484 31.0557C7.40962 32.3088 7.10362 33.8109 7.34524 35.2753C7.58686 36.7396 8.35918 38.0638 9.51482 38.995C10.6705 39.9263 12.1285 40.3994 13.6108 40.3242C15.093 40.249 16.4957 39.6306 17.5511 38.5872C18.6066 37.5437 19.2409 36.1482 19.333 34.6669H26.3997V34.3336C26.3733 33.5469 26.4632 32.7607 26.6663 32.0002H18.893ZM13.333 37.8402C12.6737 37.8402 12.0293 37.6447 11.4811 37.2785C10.933 36.9122 10.5057 36.3916 10.2534 35.7825C10.0011 35.1734 9.93511 34.5032 10.0637 33.8566C10.1923 33.21 10.5098 32.6161 10.976 32.1499C11.4422 31.6837 12.0361 31.3662 12.6827 31.2376C13.3293 31.109 13.9995 31.175 14.6086 31.4273C15.2177 31.6796 15.7383 32.1068 16.1046 32.655C16.4709 33.2032 16.6663 33.8476 16.6663 34.5069C16.6663 35.391 16.3152 36.2388 15.69 36.8639C15.0649 37.4891 14.2171 37.8402 13.333 37.8402Z" fill="black"/>
</svg>
