<svg width="336" height="32" viewBox="0 0 336 32" fill="none" xmlns="http://www.w3.org/2000/svg">
<rect width="336" height="32" fill="white"/>
<path d="M51.4854 22V9.20312H55.6689C57.0576 9.20312 58.1006 9.49023 58.7979 10.0645C59.501 10.6387 59.8525 11.4883 59.8525 12.6133C59.8525 13.2109 59.6826 13.7412 59.3428 14.2041C59.0029 14.6611 58.54 15.0156 57.9541 15.2676C58.6455 15.4609 59.1904 15.8301 59.5889 16.375C59.9932 16.9141 60.1953 17.5586 60.1953 18.3086C60.1953 19.457 59.8232 20.3594 59.0791 21.0156C58.335 21.6719 57.2832 22 55.9238 22H51.4854ZM53.1729 16.0146V20.6201H55.959C56.7441 20.6201 57.3623 20.418 57.8135 20.0137C58.2705 19.6035 58.499 19.041 58.499 18.3262C58.499 16.7852 57.6611 16.0146 55.9854 16.0146H53.1729ZM53.1729 14.6611H55.7217C56.46 14.6611 57.0488 14.4766 57.4883 14.1074C57.9336 13.7383 58.1562 13.2373 58.1562 12.6045C58.1562 11.9014 57.9512 11.3916 57.541 11.0752C57.1309 10.7529 56.5068 10.5918 55.6689 10.5918H53.1729V14.6611ZM68.3164 22C68.2227 21.8125 68.1465 21.4785 68.0879 20.998C67.332 21.7832 66.4297 22.1758 65.3809 22.1758C64.4434 22.1758 63.6729 21.9121 63.0693 21.3848C62.4717 20.8516 62.1729 20.1777 62.1729 19.3633C62.1729 18.373 62.5479 17.6055 63.2979 17.0605C64.0537 16.5098 65.1143 16.2344 66.4795 16.2344H68.0615V15.4873C68.0615 14.9189 67.8916 14.4678 67.5518 14.1338C67.2119 13.7939 66.7109 13.624 66.0488 13.624C65.4688 13.624 64.9824 13.7705 64.5898 14.0635C64.1973 14.3564 64.001 14.7109 64.001 15.127H62.3662C62.3662 14.6523 62.5332 14.1953 62.8672 13.7559C63.207 13.3105 63.6641 12.959 64.2383 12.7012C64.8184 12.4434 65.4541 12.3145 66.1455 12.3145C67.2412 12.3145 68.0996 12.5898 68.7207 13.1406C69.3418 13.6855 69.6641 14.4385 69.6875 15.3994V19.7764C69.6875 20.6494 69.7988 21.3438 70.0215 21.8594V22H68.3164ZM65.6182 20.7607C66.1279 20.7607 66.6113 20.6289 67.0684 20.3652C67.5254 20.1016 67.8564 19.7588 68.0615 19.3369V17.3857H66.7871C64.7949 17.3857 63.7988 17.9688 63.7988 19.1348C63.7988 19.6445 63.9688 20.043 64.3086 20.3301C64.6484 20.6172 65.085 20.7607 65.6182 20.7607ZM69.4414 8.78125C69.4414 9.41406 69.2598 9.92676 68.8965 10.3193C68.5391 10.7119 68.0908 10.9082 67.5518 10.9082C67.3115 10.9082 67.1035 10.8789 66.9277 10.8203C66.752 10.7617 66.5205 10.6416 66.2334 10.46C65.9521 10.2783 65.7471 10.1699 65.6182 10.1348C65.4951 10.0938 65.3516 10.0732 65.1875 10.0732C64.9473 10.0732 64.7422 10.167 64.5723 10.3545C64.4023 10.5361 64.3174 10.7705 64.3174 11.0576L63.2275 10.9961C63.2275 10.3691 63.4033 9.85059 63.7549 9.44043C64.1123 9.03027 64.5635 8.8252 65.1084 8.8252C65.3135 8.8252 65.498 8.85449 65.6621 8.91309C65.8262 8.97168 66.0488 9.08594 66.3301 9.25586C66.6113 9.42578 66.8252 9.53711 66.9717 9.58984C67.124 9.64258 67.291 9.66895 67.4727 9.66895C67.7246 9.66895 67.9326 9.56934 68.0967 9.37012C68.2666 9.1709 68.3516 8.93945 68.3516 8.67578L69.4414 8.78125ZM74.0029 22H72.377V12.4902H74.0029V22ZM72.2451 9.96777C72.2451 9.7041 72.3242 9.48145 72.4824 9.2998C72.6465 9.11816 72.8867 9.02734 73.2031 9.02734C73.5195 9.02734 73.7598 9.11816 73.9238 9.2998C74.0879 9.48145 74.1699 9.7041 74.1699 9.96777C74.1699 10.2314 74.0879 10.4512 73.9238 10.627C73.7598 10.8027 73.5195 10.8906 73.2031 10.8906C72.8867 10.8906 72.6465 10.8027 72.4824 10.627C72.3242 10.4512 72.2451 10.2314 72.2451 9.96777ZM89.1289 17.3506C89.1289 18.8037 88.7949 19.9727 88.127 20.8574C87.459 21.7363 86.5625 22.1758 85.4375 22.1758C84.2363 22.1758 83.3076 21.751 82.6514 20.9014L82.5723 22H81.0781V8.5H82.7041V13.5361C83.3604 12.7217 84.2656 12.3145 85.4199 12.3145C86.5742 12.3145 87.4795 12.751 88.1357 13.624C88.7979 14.4971 89.1289 15.6924 89.1289 17.21V17.3506ZM87.5029 17.166C87.5029 16.0586 87.2891 15.2031 86.8613 14.5996C86.4336 13.9961 85.8184 13.6943 85.0156 13.6943C83.9434 13.6943 83.1729 14.1924 82.7041 15.1885V19.3018C83.2021 20.2979 83.9785 20.7959 85.0332 20.7959C85.8125 20.7959 86.4189 20.4941 86.8525 19.8906C87.2861 19.2871 87.5029 18.3789 87.5029 17.166ZM92.9521 22H91.3262V12.4902H92.9521V22ZM91.1943 9.96777C91.1943 9.7041 91.2734 9.48145 91.4316 9.2998C91.5957 9.11816 91.8359 9.02734 92.1523 9.02734C92.4688 9.02734 92.709 9.11816 92.873 9.2998C93.0371 9.48145 93.1191 9.7041 93.1191 9.96777C93.1191 10.2314 93.0371 10.4512 92.873 10.627C92.709 10.8027 92.4688 10.8906 92.1523 10.8906C91.8359 10.8906 91.5957 10.8027 91.4316 10.627C91.2734 10.4512 91.1943 10.2314 91.1943 9.96777ZM99.5088 22.1758C98.2197 22.1758 97.1709 21.7539 96.3623 20.9102C95.5537 20.0605 95.1494 18.9268 95.1494 17.5088V17.21C95.1494 16.2666 95.3281 15.4258 95.6855 14.6875C96.0488 13.9434 96.5527 13.3633 97.1973 12.9473C97.8477 12.5254 98.5508 12.3145 99.3066 12.3145C100.543 12.3145 101.504 12.7217 102.189 13.5361C102.875 14.3506 103.218 15.5166 103.218 17.0342V17.7109H96.7754C96.7988 18.6484 97.0713 19.4072 97.5928 19.9873C98.1201 20.5615 98.7881 20.8486 99.5967 20.8486C100.171 20.8486 100.657 20.7314 101.056 20.4971C101.454 20.2627 101.803 19.9521 102.102 19.5654L103.095 20.3389C102.298 21.5635 101.103 22.1758 99.5088 22.1758ZM99.3066 13.6504C98.6504 13.6504 98.0996 13.8906 97.6543 14.3711C97.209 14.8457 96.9336 15.5137 96.8281 16.375H101.592V16.252C101.545 15.4258 101.322 14.7871 100.924 14.3359C100.525 13.8789 99.9863 13.6504 99.3066 13.6504ZM102.515 11.2246H101.021L99.2891 9.58984L97.5576 11.2246H96.0723L98.4629 8.92188H100.115L102.515 11.2246ZM101.785 10.0117L101.776 8.86035C102.157 8.83691 102.433 8.78711 102.603 8.71094C102.778 8.63477 102.866 8.5 102.866 8.30664C102.866 7.91406 102.453 7.71777 101.627 7.71777L101.671 6.90918C102.421 6.90918 102.992 7.03809 103.385 7.2959C103.777 7.55371 103.974 7.89648 103.974 8.32422C103.974 8.66992 103.865 8.93945 103.648 9.13281C103.432 9.32617 103.147 9.44336 102.796 9.48438L102.787 10.0117H101.785ZM106.646 12.4902L106.698 13.6855C107.425 12.7715 108.374 12.3145 109.546 12.3145C111.556 12.3145 112.569 13.4482 112.587 15.7158V22H110.961V15.707C110.955 15.0215 110.797 14.5146 110.486 14.1865C110.182 13.8584 109.704 13.6943 109.054 13.6943C108.526 13.6943 108.063 13.835 107.665 14.1162C107.267 14.3975 106.956 14.7666 106.733 15.2236V22H105.107V12.4902H106.646ZM124.101 13.9492C123.854 13.9082 123.588 13.8877 123.301 13.8877C122.234 13.8877 121.511 14.3418 121.13 15.25V22H119.504V12.4902H121.086L121.112 13.5889C121.646 12.7393 122.401 12.3145 123.38 12.3145C123.696 12.3145 123.937 12.3555 124.101 12.4375V13.9492ZM127.37 22H125.744V12.4902H127.37V22ZM125.612 9.96777C125.612 9.7041 125.691 9.48145 125.85 9.2998C126.014 9.11816 126.254 9.02734 126.57 9.02734C126.887 9.02734 127.127 9.11816 127.291 9.2998C127.455 9.48145 127.537 9.7041 127.537 9.96777C127.537 10.2314 127.455 10.4512 127.291 10.627C127.127 10.8027 126.887 10.8906 126.57 10.8906C126.254 10.8906 126.014 10.8027 125.85 10.627C125.691 10.4512 125.612 10.2314 125.612 9.96777ZM133.927 22.1758C132.638 22.1758 131.589 21.7539 130.78 20.9102C129.972 20.0605 129.567 18.9268 129.567 17.5088V17.21C129.567 16.2666 129.746 15.4258 130.104 14.6875C130.467 13.9434 130.971 13.3633 131.615 12.9473C132.266 12.5254 132.969 12.3145 133.725 12.3145C134.961 12.3145 135.922 12.7217 136.607 13.5361C137.293 14.3506 137.636 15.5166 137.636 17.0342V17.7109H131.193C131.217 18.6484 131.489 19.4072 132.011 19.9873C132.538 20.5615 133.206 20.8486 134.015 20.8486C134.589 20.8486 135.075 20.7314 135.474 20.4971C135.872 20.2627 136.221 19.9521 136.52 19.5654L137.513 20.3389C136.716 21.5635 135.521 22.1758 133.927 22.1758ZM133.725 13.6504C133.068 13.6504 132.518 13.8906 132.072 14.3711C131.627 14.8457 131.352 15.5137 131.246 16.375H136.01V16.252C135.963 15.4258 135.74 14.7871 135.342 14.3359C134.943 13.8789 134.404 13.6504 133.725 13.6504ZM136.379 10.9082V10.9961H135.034L133.716 9.50195L132.406 10.9961H131.062V10.8906L133.224 8.5H134.208L136.379 10.9082ZM141.063 12.4902L141.116 13.6855C141.843 12.7715 142.792 12.3145 143.964 12.3145C145.974 12.3145 146.987 13.4482 147.005 15.7158V22H145.379V15.707C145.373 15.0215 145.215 14.5146 144.904 14.1865C144.6 13.8584 144.122 13.6943 143.472 13.6943C142.944 13.6943 142.481 13.835 142.083 14.1162C141.685 14.3975 141.374 14.7666 141.151 15.2236V22H139.525V12.4902H141.063ZM149.07 17.166C149.07 15.6836 149.413 14.5059 150.099 13.6328C150.784 12.7539 151.692 12.3145 152.823 12.3145C153.983 12.3145 154.889 12.7246 155.539 13.5449L155.618 12.4902H157.104V21.7715C157.104 23.002 156.737 23.9717 156.005 24.6807C155.278 25.3896 154.3 25.7441 153.069 25.7441C152.384 25.7441 151.713 25.5977 151.057 25.3047C150.4 25.0117 149.899 24.6104 149.554 24.1006L150.397 23.125C151.095 23.9863 151.947 24.417 152.955 24.417C153.746 24.417 154.361 24.1943 154.801 23.749C155.246 23.3037 155.469 22.6768 155.469 21.8682V21.0508C154.818 21.8008 153.931 22.1758 152.806 22.1758C151.692 22.1758 150.79 21.7275 150.099 20.8311C149.413 19.9346 149.07 18.7129 149.07 17.166ZM150.705 17.3506C150.705 18.4229 150.925 19.2666 151.364 19.8818C151.804 20.4912 152.419 20.7959 153.21 20.7959C154.235 20.7959 154.988 20.3301 155.469 19.3984V15.0566C154.971 14.1484 154.224 13.6943 153.228 13.6943C152.437 13.6943 151.818 14.002 151.373 14.6172C150.928 15.2324 150.705 16.1436 150.705 17.3506ZM165.646 24.373H164.337V9.20312H165.646V24.373ZM176.914 16.2959C175.467 15.8799 174.412 15.3701 173.75 14.7666C173.094 14.1572 172.766 13.4072 172.766 12.5166C172.766 11.5088 173.167 10.6768 173.97 10.0205C174.778 9.3584 175.827 9.02734 177.116 9.02734C177.995 9.02734 178.777 9.19727 179.463 9.53711C180.154 9.87695 180.688 10.3457 181.062 10.9434C181.443 11.541 181.634 12.1943 181.634 12.9033H179.938C179.938 12.1299 179.691 11.5234 179.199 11.084C178.707 10.6387 178.013 10.416 177.116 10.416C176.284 10.416 175.634 10.6006 175.165 10.9697C174.702 11.333 174.471 11.8398 174.471 12.4902C174.471 13.0117 174.69 13.4541 175.13 13.8174C175.575 14.1748 176.328 14.5029 177.389 14.8018C178.455 15.1006 179.287 15.4316 179.885 15.7949C180.488 16.1523 180.934 16.5713 181.221 17.0518C181.514 17.5322 181.66 18.0977 181.66 18.748C181.66 19.7852 181.256 20.6172 180.447 21.2441C179.639 21.8652 178.558 22.1758 177.204 22.1758C176.325 22.1758 175.505 22.0088 174.743 21.6748C173.981 21.335 173.393 20.8721 172.977 20.2861C172.566 19.7002 172.361 19.0352 172.361 18.291H174.058C174.058 19.0645 174.342 19.6768 174.91 20.1279C175.484 20.5732 176.249 20.7959 177.204 20.7959C178.095 20.7959 178.777 20.6143 179.252 20.251C179.727 19.8877 179.964 19.3926 179.964 18.7656C179.964 18.1387 179.744 17.6553 179.305 17.3154C178.865 16.9697 178.068 16.6299 176.914 16.2959ZM185.343 22H183.717V12.4902H185.343V22ZM183.585 9.96777C183.585 9.7041 183.664 9.48145 183.822 9.2998C183.986 9.11816 184.227 9.02734 184.543 9.02734C184.859 9.02734 185.1 9.11816 185.264 9.2998C185.428 9.48145 185.51 9.7041 185.51 9.96777C185.51 10.2314 185.428 10.4512 185.264 10.627C185.1 10.8027 184.859 10.8906 184.543 10.8906C184.227 10.8906 183.986 10.8027 183.822 10.627C183.664 10.4512 183.585 10.2314 183.585 9.96777ZM187.566 17.166C187.566 15.6836 187.909 14.5059 188.595 13.6328C189.28 12.7539 190.188 12.3145 191.319 12.3145C192.479 12.3145 193.385 12.7246 194.035 13.5449L194.114 12.4902H195.6V21.7715C195.6 23.002 195.233 23.9717 194.501 24.6807C193.774 25.3896 192.796 25.7441 191.565 25.7441C190.88 25.7441 190.209 25.5977 189.553 25.3047C188.896 25.0117 188.396 24.6104 188.05 24.1006L188.894 23.125C189.591 23.9863 190.443 24.417 191.451 24.417C192.242 24.417 192.857 24.1943 193.297 23.749C193.742 23.3037 193.965 22.6768 193.965 21.8682V21.0508C193.314 21.8008 192.427 22.1758 191.302 22.1758C190.188 22.1758 189.286 21.7275 188.595 20.8311C187.909 19.9346 187.566 18.7129 187.566 17.166ZM189.201 17.3506C189.201 18.4229 189.421 19.2666 189.86 19.8818C190.3 20.4912 190.915 20.7959 191.706 20.7959C192.731 20.7959 193.484 20.3301 193.965 19.3984V15.0566C193.467 14.1484 192.72 13.6943 191.724 13.6943C190.933 13.6943 190.314 14.002 189.869 14.6172C189.424 15.2324 189.201 16.1436 189.201 17.3506ZM199.599 12.4902L199.651 13.6855C200.378 12.7715 201.327 12.3145 202.499 12.3145C204.509 12.3145 205.522 13.4482 205.54 15.7158V22H203.914V15.707C203.908 15.0215 203.75 14.5146 203.439 14.1865C203.135 13.8584 202.657 13.6943 202.007 13.6943C201.479 13.6943 201.017 13.835 200.618 14.1162C200.22 14.3975 199.909 14.7666 199.687 15.2236V22H198.061V12.4902H199.599ZM213.863 22C213.77 21.8125 213.693 21.4785 213.635 20.998C212.879 21.7832 211.977 22.1758 210.928 22.1758C209.99 22.1758 209.22 21.9121 208.616 21.3848C208.019 20.8516 207.72 20.1777 207.72 19.3633C207.72 18.373 208.095 17.6055 208.845 17.0605C209.601 16.5098 210.661 16.2344 212.026 16.2344H213.608V15.4873C213.608 14.9189 213.438 14.4678 213.099 14.1338C212.759 13.7939 212.258 13.624 211.596 13.624C211.016 13.624 210.529 13.7705 210.137 14.0635C209.744 14.3564 209.548 14.7109 209.548 15.127H207.913C207.913 14.6523 208.08 14.1953 208.414 13.7559C208.754 13.3105 209.211 12.959 209.785 12.7012C210.365 12.4434 211.001 12.3145 211.692 12.3145C212.788 12.3145 213.646 12.5898 214.268 13.1406C214.889 13.6855 215.211 14.4385 215.234 15.3994V19.7764C215.234 20.6494 215.346 21.3438 215.568 21.8594V22H213.863ZM211.165 20.7607C211.675 20.7607 212.158 20.6289 212.615 20.3652C213.072 20.1016 213.403 19.7588 213.608 19.3369V17.3857H212.334C210.342 17.3857 209.346 17.9688 209.346 19.1348C209.346 19.6445 209.516 20.043 209.855 20.3301C210.195 20.6172 210.632 20.7607 211.165 20.7607ZM219.989 10.1875V12.4902H221.765V13.7471H219.989V19.6445C219.989 20.0254 220.068 20.3125 220.227 20.5059C220.385 20.6934 220.654 20.7871 221.035 20.7871C221.223 20.7871 221.48 20.752 221.809 20.6816V22C221.381 22.1172 220.965 22.1758 220.561 22.1758C219.834 22.1758 219.286 21.9561 218.917 21.5166C218.548 21.0771 218.363 20.4531 218.363 19.6445V13.7471H216.632V12.4902H218.363V10.1875H219.989ZM229.543 21.0596C228.91 21.8037 227.981 22.1758 226.757 22.1758C225.743 22.1758 224.97 21.8828 224.437 21.2969C223.909 20.7051 223.643 19.832 223.637 18.6777V12.4902H225.263V18.6338C225.263 20.0752 225.849 20.7959 227.021 20.7959C228.263 20.7959 229.089 20.333 229.499 19.4072V12.4902H231.125V22H229.578L229.543 21.0596ZM238.2 13.9492C237.954 13.9082 237.688 13.8877 237.4 13.8877C236.334 13.8877 235.61 14.3418 235.229 15.25V22H233.604V12.4902H235.186L235.212 13.5889C235.745 12.7393 236.501 12.3145 237.479 12.3145C237.796 12.3145 238.036 12.3555 238.2 12.4375V13.9492ZM243.474 22.1758C242.185 22.1758 241.136 21.7539 240.327 20.9102C239.519 20.0605 239.114 18.9268 239.114 17.5088V17.21C239.114 16.2666 239.293 15.4258 239.65 14.6875C240.014 13.9434 240.518 13.3633 241.162 12.9473C241.812 12.5254 242.516 12.3145 243.271 12.3145C244.508 12.3145 245.469 12.7217 246.154 13.5361C246.84 14.3506 247.183 15.5166 247.183 17.0342V17.7109H240.74C240.764 18.6484 241.036 19.4072 241.558 19.9873C242.085 20.5615 242.753 20.8486 243.562 20.8486C244.136 20.8486 244.622 20.7314 245.021 20.4971C245.419 20.2627 245.768 19.9521 246.066 19.5654L247.06 20.3389C246.263 21.5635 245.067 22.1758 243.474 22.1758ZM243.271 13.6504C242.615 13.6504 242.064 13.8906 241.619 14.3711C241.174 14.8457 240.898 15.5137 240.793 16.375H245.557V16.252C245.51 15.4258 245.287 14.7871 244.889 14.3359C244.49 13.8789 243.951 13.6504 243.271 13.6504ZM257.562 16.2959C256.115 15.8799 255.061 15.3701 254.398 14.7666C253.742 14.1572 253.414 13.4072 253.414 12.5166C253.414 11.5088 253.815 10.6768 254.618 10.0205C255.427 9.3584 256.476 9.02734 257.765 9.02734C258.644 9.02734 259.426 9.19727 260.111 9.53711C260.803 9.87695 261.336 10.3457 261.711 10.9434C262.092 11.541 262.282 12.1943 262.282 12.9033H260.586C260.586 12.1299 260.34 11.5234 259.848 11.084C259.355 10.6387 258.661 10.416 257.765 10.416C256.933 10.416 256.282 10.6006 255.813 10.9697C255.351 11.333 255.119 11.8398 255.119 12.4902C255.119 13.0117 255.339 13.4541 255.778 13.8174C256.224 14.1748 256.977 14.5029 258.037 14.8018C259.104 15.1006 259.936 15.4316 260.533 15.7949C261.137 16.1523 261.582 16.5713 261.869 17.0518C262.162 17.5322 262.309 18.0977 262.309 18.748C262.309 19.7852 261.904 20.6172 261.096 21.2441C260.287 21.8652 259.206 22.1758 257.853 22.1758C256.974 22.1758 256.153 22.0088 255.392 21.6748C254.63 21.335 254.041 20.8721 253.625 20.2861C253.215 19.7002 253.01 19.0352 253.01 18.291H254.706C254.706 19.0645 254.99 19.6768 255.559 20.1279C256.133 20.5732 256.897 20.7959 257.853 20.7959C258.743 20.7959 259.426 20.6143 259.9 20.251C260.375 19.8877 260.612 19.3926 260.612 18.7656C260.612 18.1387 260.393 17.6553 259.953 17.3154C259.514 16.9697 258.717 16.6299 257.562 16.2959ZM272.258 17.3506C272.258 18.7979 271.927 19.9639 271.265 20.8486C270.603 21.7334 269.706 22.1758 268.575 22.1758C267.421 22.1758 266.513 21.8096 265.851 21.0771V25.6562H264.225V12.4902H265.71L265.789 13.5449C266.451 12.7246 267.371 12.3145 268.549 12.3145C269.691 12.3145 270.594 12.7451 271.256 13.6064C271.924 14.4678 272.258 15.666 272.258 17.2012V17.3506ZM270.632 17.166C270.632 16.0938 270.403 15.2471 269.946 14.626C269.489 14.0049 268.862 13.6943 268.065 13.6943C267.081 13.6943 266.343 14.1309 265.851 15.0039V19.5479C266.337 20.415 267.081 20.8486 268.083 20.8486C268.862 20.8486 269.48 20.541 269.938 19.9258C270.4 19.3047 270.632 18.3848 270.632 17.166ZM280.203 22C280.109 21.8125 280.033 21.4785 279.975 20.998C279.219 21.7832 278.316 22.1758 277.268 22.1758C276.33 22.1758 275.56 21.9121 274.956 21.3848C274.358 20.8516 274.06 20.1777 274.06 19.3633C274.06 18.373 274.435 17.6055 275.185 17.0605C275.94 16.5098 277.001 16.2344 278.366 16.2344H279.948V15.4873C279.948 14.9189 279.778 14.4678 279.438 14.1338C279.099 13.7939 278.598 13.624 277.936 13.624C277.355 13.624 276.869 13.7705 276.477 14.0635C276.084 14.3564 275.888 14.7109 275.888 15.127H274.253C274.253 14.6523 274.42 14.1953 274.754 13.7559C275.094 13.3105 275.551 12.959 276.125 12.7012C276.705 12.4434 277.341 12.3145 278.032 12.3145C279.128 12.3145 279.986 12.5898 280.607 13.1406C281.229 13.6855 281.551 14.4385 281.574 15.3994V19.7764C281.574 20.6494 281.686 21.3438 281.908 21.8594V22H280.203ZM277.505 20.7607C278.015 20.7607 278.498 20.6289 278.955 20.3652C279.412 20.1016 279.743 19.7588 279.948 19.3369V17.3857H278.674C276.682 17.3857 275.686 17.9688 275.686 19.1348C275.686 19.6445 275.855 20.043 276.195 20.3301C276.535 20.6172 276.972 20.7607 277.505 20.7607ZM290.205 24.373H288.896V9.20312H290.205V24.373ZM302.624 22H300.989V11.1631L297.711 12.3672V10.8906L302.369 9.1416H302.624V22ZM312.213 15.1357H315.781V16.6738H312.213V20.7168H310.578V16.6738H307.01V15.1357H310.578V11.4004H312.213V15.1357Z" fill="black"/>
<path d="M0 0H49L31.9565 32H0V0Z" fill="#003FE0"/>
<path d="M18.5 1L21.3064 11.3647H30.3882L23.0409 17.7705L25.8473 28.1353L18.5 21.7295L11.1527 28.1353L13.9591 17.7705L6.61179 11.3647H15.6936L18.5 1Z" fill="#FCFCFC"/>
</svg>
