<svg width="215" height="215" viewBox="0 0 215 215" fill="none" xmlns="http://www.w3.org/2000/svg">
<g clip-path="url(#clip0_744_987)">
<path d="M198.488 75.9434H9.16504C5.8254 75.9434 3.11816 78.6506 3.11816 81.9902V208.954C3.11816 212.293 5.8254 215 9.16504 215H198.488C201.828 215 204.535 212.293 204.535 208.954V81.9902C204.535 78.6506 201.828 75.9434 198.488 75.9434Z" fill="#FFB636"/>
<path d="M201.512 70.2383H10.61C6.4725 70.2383 3.11816 73.5926 3.11816 77.7301V82.6571H204.535V73.2617C204.535 72.4599 204.216 71.6908 203.649 71.1238C203.082 70.5568 202.313 70.2383 201.512 70.2383Z" fill="#E2A042"/>
<path d="M207.848 18.0566H77.1439C75.033 18.0566 73.3218 20.2226 73.3218 22.8941V210.163C73.3218 212.834 75.033 215 77.1439 215H207.848C209.959 215 211.67 212.834 211.67 210.163V22.8941C211.67 20.2226 209.959 18.0566 207.848 18.0566Z" fill="#FFE1AB"/>
<path d="M200.458 7.86914H84.7298C78.4293 7.86914 73.3218 12.9767 73.3218 19.2772V24.3885H211.866V19.2772C211.865 12.9767 206.758 7.86914 200.458 7.86914Z" fill="#E2A042"/>
<path d="M55.2425 172.687H22.8283C22.0265 172.687 21.2574 172.369 20.6904 171.802C20.1234 171.235 19.8049 170.466 19.8049 169.664V156.403C19.8049 155.601 20.1234 154.832 20.6904 154.265C21.2574 153.698 22.0265 153.379 22.8283 153.379H55.2425C56.0444 153.379 56.8134 153.698 57.3804 154.265C57.9474 154.832 58.266 155.601 58.266 156.403V169.664C58.266 170.466 57.9474 171.235 57.3804 171.802C56.8134 172.369 56.0444 172.687 55.2425 172.687ZM58.266 199.254V185.993C58.266 185.191 57.9474 184.422 57.3804 183.855C56.8134 183.288 56.0444 182.969 55.2425 182.969H22.6616C21.8598 182.969 21.0907 183.288 20.5237 183.855C19.9567 184.422 19.6382 185.191 19.6382 185.993V199.254C19.6382 200.056 19.9567 200.825 20.5237 201.392C21.0907 201.959 21.8598 202.277 22.6616 202.277H55.2425C56.0444 202.277 56.8134 201.959 57.3804 201.392C57.9474 200.825 58.266 200.056 58.266 199.254ZM170.071 165.787H114.986V214.999H170.071V165.787ZM47.9363 93.995V108.465C47.9362 109.056 47.7013 109.623 47.2832 110.041C46.8652 110.459 46.2982 110.694 45.7069 110.694H32.1972C31.606 110.694 31.039 110.459 30.6209 110.041C30.2029 109.623 29.968 109.056 29.9678 108.465V93.9954C29.9677 93.4042 29.7328 92.8372 29.3148 92.4191C28.8967 92.0011 28.3297 91.7662 27.7385 91.766H22.2509C21.6597 91.7662 21.0927 92.0011 20.6747 92.4191C20.2566 92.8372 20.0217 93.4042 20.0216 93.9954V140.843C20.0217 141.434 20.2566 142.001 20.6747 142.419C21.0927 142.837 21.6597 143.072 22.2509 143.072H27.7389C28.3301 143.072 28.8971 142.837 29.3152 142.419C29.7332 142.001 29.9682 141.434 29.9683 140.843V122.87C29.9684 122.278 30.2033 121.711 30.6214 121.293C31.0394 120.875 31.6064 120.64 32.1976 120.64H45.7078C46.299 120.64 46.866 120.875 47.2841 121.293C47.7021 121.711 47.937 122.278 47.9371 122.87V140.843C47.9373 141.434 48.1722 142.001 48.5902 142.419C49.0083 142.837 49.5753 143.072 50.1665 143.072H55.6545C56.2457 143.072 56.8127 142.837 57.2307 142.419C57.6488 142.001 57.8837 141.434 57.8838 140.843V93.995C57.8837 93.4038 57.6488 92.8368 57.2307 92.4187C56.8127 92.0007 56.2457 91.7657 55.6545 91.7656H50.1665C49.8737 91.7656 49.5837 91.8232 49.3132 91.9352C49.0426 92.0472 48.7968 92.2114 48.5897 92.4184C48.3826 92.6254 48.2183 92.8712 48.1062 93.1417C47.9941 93.4122 47.9364 93.7022 47.9363 93.995Z" fill="#2B3B47"/>
<path d="M151.489 104.894H133.507C132.705 104.894 131.936 104.575 131.369 104.008C130.802 103.441 130.483 102.672 130.483 101.87V83.1454C130.483 82.3435 130.802 81.5745 131.369 81.0075C131.936 80.4405 132.705 80.1219 133.507 80.1219H151.489C152.291 80.1219 153.06 80.4405 153.627 81.0075C154.194 81.5745 154.512 82.3435 154.512 83.1454V101.87C154.512 102.672 154.194 103.441 153.627 104.008C153.06 104.575 152.291 104.894 151.489 104.894ZM196.539 101.87V83.1454C196.539 82.3435 196.22 81.5745 195.653 81.0075C195.086 80.4405 194.317 80.1219 193.515 80.1219H175.533C174.731 80.1219 173.962 80.4405 173.395 81.0075C172.828 81.5745 172.509 82.3435 172.509 83.1454V101.87C172.509 102.672 172.828 103.441 173.395 104.008C173.962 104.575 174.731 104.894 175.533 104.894H193.515C194.317 104.894 195.086 104.575 195.653 104.008C196.22 103.441 196.539 102.672 196.539 101.87ZM154.512 142.028V123.303C154.512 122.501 154.194 121.732 153.627 121.165C153.06 120.598 152.291 120.28 151.489 120.28H133.507C132.705 120.28 131.936 120.598 131.369 121.165C130.802 121.732 130.483 122.501 130.483 123.303V142.028C130.483 142.83 130.802 143.599 131.369 144.166C131.936 144.733 132.705 145.052 133.507 145.052H151.489C152.291 145.052 153.06 144.733 153.627 144.166C154.194 143.599 154.512 142.83 154.512 142.028ZM196.539 142.028V123.303C196.539 122.501 196.22 121.732 195.653 121.165C195.086 120.598 194.317 120.28 193.515 120.28H175.533C174.731 120.28 173.962 120.598 173.395 121.165C172.828 121.732 172.509 122.501 172.509 123.303V142.028C172.509 142.83 172.828 143.599 173.395 144.166C173.962 144.733 174.731 145.052 175.533 145.052H193.515C194.317 145.052 195.086 144.733 195.653 144.166C196.22 143.599 196.539 142.83 196.539 142.028ZM112.486 101.87V83.1454C112.486 82.3435 112.168 81.5745 111.601 81.0075C111.034 80.4405 110.265 80.1219 109.463 80.1219H91.4805C90.6786 80.1219 89.9096 80.4405 89.3426 81.0075C88.7756 81.5745 88.457 82.3435 88.457 83.1454V101.87C88.457 102.672 88.7756 103.441 89.3426 104.008C89.9096 104.575 90.6786 104.894 91.4805 104.894H109.463C110.265 104.894 111.034 104.575 111.601 104.008C112.168 103.441 112.486 102.672 112.486 101.87ZM112.486 142.028V123.303C112.486 122.501 112.168 121.732 111.601 121.165C111.034 120.598 110.265 120.28 109.463 120.28H91.4805C90.6786 120.28 89.9096 120.598 89.3426 121.165C88.7756 121.732 88.457 122.501 88.457 123.303V142.028C88.457 142.83 88.7756 143.599 89.3426 144.166C89.9096 144.733 90.6786 145.052 91.4805 145.052H109.463C110.265 145.052 111.034 144.733 111.601 144.166C112.168 143.599 112.486 142.83 112.486 142.028ZM154.512 61.6408V42.916C154.512 42.1141 154.194 41.3451 153.627 40.7781C153.06 40.2111 152.291 39.8926 151.489 39.8926H133.507C132.705 39.8926 131.936 40.2111 131.369 40.7781C130.802 41.3451 130.483 42.1141 130.483 42.916V61.6408C130.483 62.4426 130.802 63.2116 131.369 63.7786C131.936 64.3457 132.705 64.6642 133.507 64.6642H151.489C152.291 64.6642 153.06 64.3457 153.627 63.7786C154.194 63.2116 154.512 62.4426 154.512 61.6408ZM196.539 61.6408V42.916C196.539 42.1141 196.22 41.3451 195.653 40.7781C195.086 40.2111 194.317 39.8926 193.515 39.8926H175.533C174.731 39.8926 173.962 40.2111 173.395 40.7781C172.828 41.3451 172.509 42.1141 172.509 42.916V61.6408C172.509 62.4426 172.828 63.2116 173.395 63.7786C173.962 64.3457 174.731 64.6642 175.533 64.6642H193.515C194.317 64.6642 195.086 64.3457 195.653 63.7786C196.22 63.2116 196.539 62.4426 196.539 61.6408ZM112.486 61.6408V42.916C112.486 42.1141 112.168 41.3451 111.601 40.7781C111.034 40.2111 110.265 39.8926 109.463 39.8926H91.4805C90.6786 39.8926 89.9096 40.2111 89.3426 40.7781C88.7756 41.3451 88.457 42.1141 88.457 42.916V61.6408C88.457 62.4426 88.7756 63.2116 89.3426 63.7786C89.9096 64.3457 90.6786 64.6642 91.4805 64.6642H109.463C110.265 64.6642 111.034 64.3457 111.601 63.7786C112.168 63.2116 112.486 62.4426 112.486 61.6408ZM170.5 158.773H114.556C112.271 158.773 110.419 160.626 110.419 162.911V169.981C110.419 170.506 110.627 171.01 110.999 171.382C111.371 171.753 111.875 171.962 112.4 171.962H141.059V215H143.998V171.962H172.657C173.182 171.962 173.686 171.753 174.058 171.382C174.43 171.01 174.638 170.506 174.638 169.981V162.911C174.638 160.626 172.786 158.773 170.5 158.773Z" fill="#597B91"/>
</g>
<defs>
<clipPath id="clip0_744_987">
<rect width="215" height="215" fill="white"/>
</clipPath>
</defs>
</svg>
