<svg width="21" height="19" viewBox="0 0 21 19" fill="none" xmlns="http://www.w3.org/2000/svg">
<path d="M1.32584 19H19.6829C20.038 19 20.3454 18.8474 20.6049 18.5423C20.8644 18.2372 20.9941 17.862 20.9941 17.4167V1.58333C20.9941 1.15451 20.8644 0.78342 20.6049 0.470052C20.3454 0.156684 20.038 0 19.6829 0H1.32584C0.957058 0 0.646326 0.156684 0.393642 0.470052C0.140959 0.78342 0.0146198 1.15451 0.0146198 1.58333V17.4167C0.0146198 17.862 0.140959 18.2372 0.393642 18.5423C0.646326 18.8474 0.957058 19 1.32584 19ZM1.32584 1.58333H19.6829V17.4167H1.32584V1.58333ZM15.7493 4.75L3.94828 12.6667L2.63706 11.0833V15.8333H6.57072L5.2595 14.25L17.0605 6.33333L18.3717 7.91667V3.16667H14.438L15.7493 4.75Z" fill="black" fill-opacity="0.8"/>
</svg>
