<svg width="31" height="29" viewBox="0 0 31 29" fill="none" xmlns="http://www.w3.org/2000/svg">
<path d="M3.104 16.4167L17.6873 16.4181C18.2311 16.4182 18.7554 16.6207 19.1579 16.9863C19.5605 17.3519 19.8124 17.8544 19.8646 18.3956L19.8748 18.6042V21.5208C19.8734 26.625 14.4557 28.0833 10.3957 28.0833C6.42609 28.0833 1.15713 26.6892 0.923796 21.8563L0.916504 21.5208V18.6042C0.91653 18.0604 1.1191 17.5361 1.4847 17.1336C1.8503 16.731 2.35273 16.4791 2.894 16.4269L3.104 16.4167ZM20.5865 16.4167H27.8957C28.4392 16.4167 28.9633 16.619 29.3658 16.9843C29.7683 17.3496 30.0204 17.8517 30.073 18.3927L30.0832 18.6042V20.7917C30.0817 25.2571 25.9153 26.625 22.7915 26.625C21.7334 26.6275 20.6812 26.4692 19.6707 26.1554C20.623 25.0617 21.2398 23.6719 21.323 21.9292L21.3332 21.5208V18.6042C21.3332 17.8838 21.1144 17.2173 20.7513 16.6529L20.5865 16.4167H27.8957H20.5865ZM10.3957 0.375C12.1362 0.375 13.8054 1.0664 15.0361 2.29711C16.2668 3.52782 16.9582 5.19702 16.9582 6.9375C16.9582 8.67798 16.2668 10.3472 15.0361 11.5779C13.8054 12.8086 12.1362 13.5 10.3957 13.5C8.65519 13.5 6.98599 12.8086 5.75528 11.5779C4.52458 10.3472 3.83317 8.67798 3.83317 6.9375C3.83317 5.19702 4.52458 3.52782 5.75528 2.29711C6.98599 1.0664 8.65519 0.375 10.3957 0.375ZM23.5207 3.29167C24.8744 3.29167 26.1726 3.82943 27.1299 4.78664C28.0871 5.74386 28.6248 7.04212 28.6248 8.39583C28.6248 9.74954 28.0871 11.0478 27.1299 12.005C26.1726 12.9622 24.8744 13.5 23.5207 13.5C22.167 13.5 20.8687 12.9622 19.9115 12.005C18.9543 11.0478 18.4165 9.74954 18.4165 8.39583C18.4165 7.04212 18.9543 5.74386 19.9115 4.78664C20.8687 3.82943 22.167 3.29167 23.5207 3.29167Z" fill="#515151"/>
</svg>
