<svg width="52" height="52" viewBox="0 0 52 52" fill="none" xmlns="http://www.w3.org/2000/svg">
<path d="M43.875 23.4305C42.8506 22.9808 41.7438 22.749 40.625 22.75H11.375C10.2563 22.7489 9.14957 22.9803 8.125 23.4295C6.67692 24.0627 5.4447 25.1041 4.57894 26.4264C3.71318 27.7487 3.25138 29.2945 3.25 30.875V42.25C3.25 42.681 3.4212 43.0943 3.72595 43.3991C4.0307 43.7038 4.44402 43.875 4.875 43.875C5.30598 43.875 5.7193 43.7038 6.02405 43.3991C6.3288 43.0943 6.5 42.681 6.5 42.25V41.4375C6.50263 41.2228 6.58908 41.0177 6.74089 40.8659C6.89269 40.7141 7.09783 40.6276 7.3125 40.625H44.6875C44.9022 40.6276 45.1073 40.7141 45.2591 40.8659C45.4109 41.0177 45.4974 41.2228 45.5 41.4375V42.25C45.5 42.681 45.6712 43.0943 45.976 43.3991C46.2807 43.7038 46.694 43.875 47.125 43.875C47.556 43.875 47.9693 43.7038 48.274 43.3991C48.5788 43.0943 48.75 42.681 48.75 42.25V30.875C48.7484 29.2947 48.2865 27.7491 47.4208 26.427C46.555 25.1049 45.3229 24.0637 43.875 23.4305Z" fill="#515151"/>
<path d="M38.1875 8.125H13.8125C12.3041 8.125 10.8574 8.72422 9.79083 9.79083C8.72422 10.8574 8.125 12.3041 8.125 13.8125V21.125C8.12505 21.188 8.13972 21.25 8.16787 21.3063C8.19602 21.3627 8.23687 21.4117 8.28719 21.4495C8.33752 21.4873 8.39595 21.5129 8.45787 21.5243C8.51979 21.5356 8.5835 21.5325 8.64398 21.515C9.53109 21.2555 10.4507 21.1242 11.375 21.125H11.8046C11.9049 21.1256 12.0019 21.0892 12.0768 21.0226C12.1518 20.956 12.1996 20.8641 12.2109 20.7645C12.2995 19.9704 12.6775 19.2369 13.2727 18.7039C13.8679 18.1709 14.6385 17.8758 15.4375 17.875H21.125C21.9245 17.8751 22.6959 18.1698 23.2917 18.7029C23.8876 19.2359 24.266 19.9699 24.3547 20.7645C24.366 20.8641 24.4137 20.956 24.4887 21.0226C24.5637 21.0892 24.6607 21.1256 24.7609 21.125H27.2452C27.3454 21.1256 27.4424 21.0892 27.5174 21.0226C27.5924 20.956 27.6401 20.8641 27.6514 20.7645C27.74 19.971 28.1176 19.2378 28.7121 18.7049C29.3067 18.172 30.0766 17.8766 30.875 17.875H36.5625C37.362 17.8751 38.1334 18.1698 38.7292 18.7029C39.3251 19.2359 39.7035 19.9699 39.7922 20.7645C39.8035 20.8641 39.8512 20.956 39.9262 21.0226C40.0012 21.0892 40.0982 21.1256 40.1984 21.125H40.625C41.5493 21.1246 42.469 21.2562 43.356 21.516C43.4166 21.5335 43.4804 21.5367 43.5424 21.5252C43.6044 21.5138 43.6629 21.4881 43.7132 21.4502C43.7636 21.4123 43.8044 21.3631 43.8325 21.3067C43.8605 21.2502 43.8751 21.188 43.875 21.125V13.8125C43.875 12.3041 43.2758 10.8574 42.2092 9.79083C41.1426 8.72422 39.6959 8.125 38.1875 8.125Z" fill="#515151"/>
</svg>
