<svg width="166" height="43" viewBox="0 0 166 43" fill="none" xmlns="http://www.w3.org/2000/svg">
<path d="M0 0H166C120.727 43 118.431 0 166 43H0V0Z" fill="#FF002C"/>
<path d="M19.04 17.3389H15.1201V28H12.4834V17.3389H8.61621V15.2031H19.04V17.3389ZM18.1611 23.1572C18.1611 22.2139 18.3428 21.373 18.7061 20.6348C19.0693 19.8965 19.5908 19.3252 20.2705 18.9209C20.9561 18.5166 21.75 18.3145 22.6523 18.3145C23.9355 18.3145 24.9814 18.707 25.79 19.4922C26.6045 20.2773 27.0586 21.3438 27.1523 22.6914L27.1699 23.3418C27.1699 24.8008 26.7627 25.9727 25.9482 26.8574C25.1338 27.7363 24.041 28.1758 22.6699 28.1758C21.2988 28.1758 20.2031 27.7363 19.3828 26.8574C18.5684 25.9785 18.1611 24.7832 18.1611 23.2715V23.1572ZM20.7012 23.3418C20.7012 24.2441 20.8711 24.9355 21.2109 25.416C21.5508 25.8906 22.0371 26.1279 22.6699 26.1279C23.2852 26.1279 23.7656 25.8936 24.1113 25.4248C24.457 24.9502 24.6299 24.1943 24.6299 23.1572C24.6299 22.2725 24.457 21.5869 24.1113 21.1006C23.7656 20.6143 23.2793 20.3711 22.6523 20.3711C22.0312 20.3711 21.5508 20.6143 21.2109 21.1006C20.8711 21.5811 20.7012 22.3281 20.7012 23.3418ZM34.4297 27.0332C33.8027 27.7949 32.9355 28.1758 31.8281 28.1758C30.8086 28.1758 30.0293 27.8828 29.4902 27.2969C28.957 26.7109 28.6846 25.8525 28.6729 24.7217V18.4902H31.2129V24.6338C31.2129 25.624 31.6641 26.1191 32.5664 26.1191C33.4277 26.1191 34.0195 25.8203 34.3418 25.2227V18.4902H36.8906V28H34.5L34.4297 27.0332ZM44.1504 20.8721C43.8047 20.8252 43.5 20.8018 43.2363 20.8018C42.2754 20.8018 41.6455 21.127 41.3467 21.7773V28H38.8066V18.4902H41.2061L41.2764 19.624C41.7861 18.751 42.4922 18.3145 43.3945 18.3145C43.6758 18.3145 43.9395 18.3525 44.1855 18.4287L44.1504 20.8721ZM59.4258 17.2949H58.0371V28H55.7432L55.6201 26.9893C54.9873 27.7803 54.1729 28.1758 53.1768 28.1758C52.0576 28.1758 51.1582 27.7363 50.4785 26.8574C49.8047 25.9727 49.4678 24.7451 49.4678 23.1748C49.4678 21.6924 49.7988 20.5117 50.4609 19.6328C51.1289 18.7539 52.04 18.3145 53.1943 18.3145C54.1201 18.3145 54.8848 18.6602 55.4883 19.3516V17.2949H53.2734V15.6865H55.4883V14.5H58.0371V15.6865H59.4258V17.2949ZM52.0078 23.3594C52.0078 24.25 52.1631 24.9326 52.4736 25.4072C52.7842 25.8818 53.2354 26.1191 53.8271 26.1191C54.6123 26.1191 55.166 25.7881 55.4883 25.126V21.373C55.1719 20.7109 54.624 20.3799 53.8447 20.3799C52.6201 20.3799 52.0078 21.373 52.0078 23.3594ZM66.7295 28C66.6123 27.7715 66.5273 27.4873 66.4746 27.1475C65.8594 27.833 65.0596 28.1758 64.0752 28.1758C63.1436 28.1758 62.3701 27.9062 61.7549 27.3672C61.1455 26.8281 60.8408 26.1484 60.8408 25.3281C60.8408 24.3203 61.2129 23.5469 61.957 23.0078C62.707 22.4688 63.7881 22.1963 65.2002 22.1904H66.3691V21.6455C66.3691 21.2061 66.2549 20.8545 66.0264 20.5908C65.8037 20.3271 65.4492 20.1953 64.9629 20.1953C64.5352 20.1953 64.1982 20.2979 63.9521 20.5029C63.7119 20.708 63.5918 20.9893 63.5918 21.3467H61.0518C61.0518 20.7959 61.2217 20.2861 61.5615 19.8174C61.9014 19.3486 62.3818 18.9824 63.0029 18.7188C63.624 18.4492 64.3213 18.3145 65.0947 18.3145C66.2666 18.3145 67.1953 18.6104 67.8809 19.2021C68.5723 19.7881 68.918 20.6143 68.918 21.6807V25.8027C68.9238 26.7051 69.0498 27.3877 69.2959 27.8506V28H66.7295ZM64.6289 26.2334C65.0039 26.2334 65.3496 26.1514 65.666 25.9873C65.9824 25.8174 66.2168 25.5918 66.3691 25.3105V23.6758H65.4199C64.1484 23.6758 63.4717 24.1152 63.3896 24.9941L63.3809 25.1436C63.3809 25.46 63.4922 25.7207 63.7148 25.9258C63.9375 26.1309 64.2422 26.2334 64.6289 26.2334ZM73.207 18.4902L73.2861 19.5889C73.9658 18.7393 74.877 18.3145 76.0195 18.3145C77.0273 18.3145 77.7773 18.6104 78.2695 19.2021C78.7617 19.7939 79.0137 20.6787 79.0254 21.8564V28H76.4854V21.918C76.4854 21.3789 76.3682 20.9893 76.1338 20.749C75.8994 20.5029 75.5098 20.3799 74.9648 20.3799C74.25 20.3799 73.7139 20.6846 73.3564 21.2939V28H70.8164V18.4902H73.207ZM80.5898 23.1748C80.5898 21.7158 80.9355 20.541 81.627 19.6504C82.3242 18.7598 83.2617 18.3145 84.4395 18.3145C85.4824 18.3145 86.2939 18.6719 86.874 19.3867L86.9795 18.4902H89.2822V27.6836C89.2822 28.5156 89.0918 29.2393 88.7109 29.8545C88.3359 30.4697 87.8057 30.9385 87.1201 31.2607C86.4346 31.583 85.6318 31.7441 84.7119 31.7441C84.0146 31.7441 83.335 31.6035 82.6729 31.3223C82.0107 31.0469 81.5098 30.6895 81.1699 30.25L82.2949 28.7031C82.9277 29.4121 83.6953 29.7666 84.5977 29.7666C85.2715 29.7666 85.7959 29.585 86.1709 29.2217C86.5459 28.8643 86.7334 28.3545 86.7334 27.6924V27.1826C86.1475 27.8447 85.377 28.1758 84.4219 28.1758C83.2793 28.1758 82.3535 27.7305 81.6445 26.8398C80.9414 25.9434 80.5898 24.7568 80.5898 23.2803V23.1748ZM83.1299 23.3594C83.1299 24.2207 83.3027 24.8975 83.6484 25.3896C83.9941 25.876 84.4688 26.1191 85.0723 26.1191C85.8457 26.1191 86.3994 25.8291 86.7334 25.249V21.25C86.3936 20.6699 85.8457 20.3799 85.0898 20.3799C84.4805 20.3799 84 20.6289 83.6484 21.127C83.3027 21.625 83.1299 22.3691 83.1299 23.3594ZM106.307 28H103.67V22.5156H98.5283V28H95.8916V15.2031H98.5283V20.3887H103.67V15.2031H106.307V28ZM108.056 23.1572C108.056 22.2139 108.237 21.373 108.601 20.6348C108.964 19.8965 109.485 19.3252 110.165 18.9209C110.851 18.5166 111.645 18.3145 112.547 18.3145C113.83 18.3145 114.876 18.707 115.685 19.4922C116.499 20.2773 116.953 21.3438 117.047 22.6914L117.064 23.3418C117.064 24.8008 116.657 25.9727 115.843 26.8574C115.028 27.7363 113.936 28.1758 112.564 28.1758C111.193 28.1758 110.098 27.7363 109.277 26.8574C108.463 25.9785 108.056 24.7832 108.056 23.2715V23.1572ZM110.596 23.3418C110.596 24.2441 110.766 24.9355 111.105 25.416C111.445 25.8906 111.932 26.1279 112.564 26.1279C113.18 26.1279 113.66 25.8936 114.006 25.4248C114.352 24.9502 114.524 24.1943 114.524 23.1572C114.524 22.2725 114.352 21.5869 114.006 21.1006C113.66 20.6143 113.174 20.3711 112.547 20.3711C111.926 20.3711 111.445 20.6143 111.105 21.1006C110.766 21.5811 110.596 22.3281 110.596 23.3418ZM121.67 16.1523V18.4902H123.296V20.3535H121.67V25.0996C121.67 25.4512 121.737 25.7031 121.872 25.8555C122.007 26.0078 122.265 26.084 122.646 26.084C122.927 26.084 123.176 26.0635 123.393 26.0225V27.9473C122.895 28.0996 122.382 28.1758 121.854 28.1758C120.073 28.1758 119.165 27.2764 119.13 25.4775V20.3535H117.741V18.4902H119.13V16.1523H121.67Z" fill="white"/>
</svg>

