 <svg width="166" height="43" viewBox="0 0 166 43" fill="none" xmlns="http://www.w3.org/2000/svg">
<path d="M0 0H166C120.727 43 118.431 0 166 43H0V0Z" fill="#FF002C"/>
<path d="M23.6543 17.3389H19.7344V28H17.0977V17.3389H13.2305V15.2031H23.6543V17.3389ZM22.7754 23.1572C22.7754 22.2139 22.957 21.373 23.3203 20.6348C23.6836 19.8965 24.2051 19.3252 24.8848 18.9209C25.5703 18.5166 26.3643 18.3145 27.2666 18.3145C28.5498 18.3145 29.5957 18.707 30.4043 19.4922C31.2188 20.2773 31.6729 21.3438 31.7666 22.6914L31.7842 23.3418C31.7842 24.8008 31.377 25.9727 30.5625 26.8574C29.748 27.7363 28.6553 28.1758 27.2842 28.1758C25.9131 28.1758 24.8174 27.7363 23.9971 26.8574C23.1826 25.9785 22.7754 24.7832 22.7754 23.2715V23.1572ZM25.3154 23.3418C25.3154 24.2441 25.4854 24.9355 25.8252 25.416C26.165 25.8906 26.6514 26.1279 27.2842 26.1279C27.8994 26.1279 28.3799 25.8936 28.7256 25.4248C29.0713 24.9502 29.2441 24.1943 29.2441 23.1572C29.2441 22.2725 29.0713 21.5869 28.7256 21.1006C28.3799 20.6143 27.8936 20.3711 27.2666 20.3711C26.6455 20.3711 26.165 20.6143 25.8252 21.1006C25.4854 21.5811 25.3154 22.3281 25.3154 23.3418ZM39.0439 27.0332C38.417 27.7949 37.5498 28.1758 36.4424 28.1758C35.4229 28.1758 34.6436 27.8828 34.1045 27.2969C33.5713 26.7109 33.2988 25.8525 33.2871 24.7217V18.4902H35.8271V24.6338C35.8271 25.624 36.2783 26.1191 37.1807 26.1191C38.042 26.1191 38.6338 25.8203 38.9561 25.2227V18.4902H41.5049V28H39.1143L39.0439 27.0332ZM48.7646 20.8721C48.4189 20.8252 48.1143 20.8018 47.8506 20.8018C46.8896 20.8018 46.2598 21.127 45.9609 21.7773V28H43.4209V18.4902H45.8203L45.8906 19.624C46.4004 18.751 47.1064 18.3145 48.0088 18.3145C48.29 18.3145 48.5537 18.3525 48.7998 18.4287L48.7646 20.8721ZM64.04 17.2949H62.6514V28H60.3574L60.2344 26.9893C59.6016 27.7803 58.7871 28.1758 57.791 28.1758C56.6719 28.1758 55.7725 27.7363 55.0928 26.8574C54.4189 25.9727 54.082 24.7451 54.082 23.1748C54.082 21.6924 54.4131 20.5117 55.0752 19.6328C55.7432 18.7539 56.6543 18.3145 57.8086 18.3145C58.7344 18.3145 59.499 18.6602 60.1025 19.3516V17.2949H57.8877V15.6865H60.1025V14.5H62.6514V15.6865H64.04V17.2949ZM56.6221 23.3594C56.6221 24.25 56.7773 24.9326 57.0879 25.4072C57.3984 25.8818 57.8496 26.1191 58.4414 26.1191C59.2266 26.1191 59.7803 25.7881 60.1025 25.126V21.373C59.7861 20.7109 59.2383 20.3799 58.459 20.3799C57.2344 20.3799 56.6221 21.373 56.6221 23.3594ZM71.3438 28C71.2266 27.7715 71.1416 27.4873 71.0889 27.1475C70.4736 27.833 69.6738 28.1758 68.6895 28.1758C67.7578 28.1758 66.9844 27.9062 66.3691 27.3672C65.7598 26.8281 65.4551 26.1484 65.4551 25.3281C65.4551 24.3203 65.8271 23.5469 66.5713 23.0078C67.3213 22.4688 68.4023 22.1963 69.8145 22.1904H70.9834V21.6455C70.9834 21.2061 70.8691 20.8545 70.6406 20.5908C70.418 20.3271 70.0635 20.1953 69.5771 20.1953C69.1494 20.1953 68.8125 20.2979 68.5664 20.5029C68.3262 20.708 68.2061 20.9893 68.2061 21.3467H65.666C65.666 20.7959 65.8359 20.2861 66.1758 19.8174C66.5156 19.3486 66.9961 18.9824 67.6172 18.7188C68.2383 18.4492 68.9355 18.3145 69.709 18.3145C70.8809 18.3145 71.8096 18.6104 72.4951 19.2021C73.1865 19.7881 73.5322 20.6143 73.5322 21.6807V25.8027C73.5381 26.7051 73.6641 27.3877 73.9102 27.8506V28H71.3438ZM69.2432 26.2334C69.6182 26.2334 69.9639 26.1514 70.2803 25.9873C70.5967 25.8174 70.8311 25.5918 70.9834 25.3105V23.6758H70.0342C68.7627 23.6758 68.0859 24.1152 68.0039 24.9941L67.9951 25.1436C67.9951 25.46 68.1064 25.7207 68.3291 25.9258C68.5518 26.1309 68.8564 26.2334 69.2432 26.2334ZM72.75 14.5879C72.75 15.3672 72.4688 15.9971 71.9062 16.4775C71.3496 16.958 70.6172 17.1982 69.709 17.1982C68.8008 17.1982 68.0654 16.9609 67.5029 16.4863C66.9463 16.0117 66.668 15.3789 66.668 14.5879H68.4697C68.4697 14.957 68.5781 15.2441 68.7949 15.4492C69.0176 15.6484 69.3223 15.748 69.709 15.748C70.0898 15.748 70.3887 15.6484 70.6055 15.4492C70.8223 15.2441 70.9307 14.957 70.9307 14.5879H72.75ZM67.6172 29.916C67.6172 29.5645 67.749 29.2744 68.0127 29.0459C68.2764 28.8174 68.6162 28.7031 69.0322 28.7031C69.4541 28.7031 69.7969 28.8174 70.0605 29.0459C70.3242 29.2744 70.4561 29.5645 70.4561 29.916C70.4561 30.2617 70.3242 30.5518 70.0605 30.7861C69.8027 31.0205 69.46 31.1377 69.0322 31.1377C68.6045 31.1377 68.2617 31.0205 68.0039 30.7861C67.7461 30.5518 67.6172 30.2617 67.6172 29.916ZM79.4385 26.1279C79.9072 26.1279 80.2881 25.999 80.5811 25.7412C80.874 25.4834 81.0264 25.1406 81.0381 24.7129H83.4199C83.4141 25.3574 83.2383 25.9492 82.8926 26.4883C82.5469 27.0215 82.0723 27.4375 81.4688 27.7363C80.8711 28.0293 80.209 28.1758 79.4824 28.1758C78.123 28.1758 77.0508 27.7451 76.2656 26.8838C75.4805 26.0166 75.0879 24.8213 75.0879 23.2979V23.1309C75.0879 21.666 75.4775 20.4971 76.2568 19.624C77.0361 18.751 78.1055 18.3145 79.4648 18.3145C80.6543 18.3145 81.6064 18.6543 82.3213 19.334C83.042 20.0078 83.4082 20.9072 83.4199 22.0322H81.0381C81.0264 21.54 80.874 21.1416 80.5811 20.8369C80.2881 20.5264 79.9014 20.3711 79.4209 20.3711C78.8291 20.3711 78.3809 20.5879 78.0762 21.0215C77.7773 21.4492 77.6279 22.1465 77.6279 23.1133V23.377C77.6279 24.3555 77.7773 25.0586 78.0762 25.4863C78.375 25.9141 78.8291 26.1279 79.4385 26.1279ZM97.9219 23.333C97.9219 24.8564 97.5967 26.0459 96.9463 26.9014C96.2959 27.751 95.3877 28.1758 94.2217 28.1758C93.1904 28.1758 92.3672 27.7803 91.752 26.9893L91.6377 28H89.3525V14.5H91.8926V19.3428C92.4785 18.6572 93.249 18.3145 94.2041 18.3145C95.3643 18.3145 96.2725 18.7422 96.9287 19.5977C97.5908 20.4473 97.9219 21.6455 97.9219 23.1924V23.333ZM95.3818 23.1484C95.3818 22.1875 95.2295 21.4873 94.9248 21.0479C94.6201 20.6025 94.166 20.3799 93.5625 20.3799C92.7539 20.3799 92.1973 20.7109 91.8926 21.373V25.126C92.2031 25.7939 92.7656 26.1279 93.5801 26.1279C94.4004 26.1279 94.9395 25.7236 95.1973 24.915C95.3203 24.5283 95.3818 23.9395 95.3818 23.1484ZM102.176 28H99.627V18.4902H102.176V28ZM99.4775 16.0293C99.4775 15.6484 99.6035 15.335 99.8555 15.0889C100.113 14.8428 100.462 14.7197 100.901 14.7197C101.335 14.7197 101.681 14.8428 101.938 15.0889C102.196 15.335 102.325 15.6484 102.325 16.0293C102.325 16.416 102.193 16.7324 101.93 16.9785C101.672 17.2246 101.329 17.3477 100.901 17.3477C100.474 17.3477 100.128 17.2246 99.8643 16.9785C99.6064 16.7324 99.4775 16.416 99.4775 16.0293ZM108.653 28.1758C107.259 28.1758 106.122 27.748 105.243 26.8926C104.37 26.0371 103.934 24.8975 103.934 23.4736V23.2275C103.934 22.2725 104.118 21.4199 104.487 20.6699C104.856 19.9141 105.378 19.334 106.052 18.9297C106.731 18.5195 107.505 18.3145 108.372 18.3145C109.673 18.3145 110.695 18.7246 111.439 19.5449C112.189 20.3652 112.564 21.5283 112.564 23.0342V24.0713H106.509C106.591 24.6924 106.837 25.1904 107.247 25.5654C107.663 25.9404 108.188 26.1279 108.82 26.1279C109.799 26.1279 110.563 25.7734 111.114 25.0645L112.362 26.4619C111.981 27.001 111.466 27.4229 110.815 27.7275C110.165 28.0264 109.444 28.1758 108.653 28.1758ZM108.363 20.3711C107.859 20.3711 107.449 20.541 107.133 20.8809C106.822 21.2207 106.623 21.707 106.535 22.3398H110.068V22.1377C110.057 21.5752 109.904 21.1416 109.611 20.8369C109.318 20.5264 108.902 20.3711 108.363 20.3711ZM111.457 16.9609V17.0664H109.436L108.082 15.792L106.729 17.0664H104.742V16.9258L107.344 14.5H108.82L111.457 16.9609ZM106.878 30.0566C106.878 29.7051 107.01 29.415 107.273 29.1865C107.537 28.958 107.877 28.8438 108.293 28.8438C108.715 28.8438 109.058 28.958 109.321 29.1865C109.585 29.415 109.717 29.7051 109.717 30.0566C109.717 30.4023 109.585 30.6924 109.321 30.9268C109.063 31.1611 108.721 31.2783 108.293 31.2783C107.865 31.2783 107.522 31.1611 107.265 30.9268C107.007 30.6924 106.878 30.4023 106.878 30.0566ZM117.056 16.1523V18.4902H118.682V20.3535H117.056V25.0996C117.056 25.4512 117.123 25.7031 117.258 25.8555C117.393 26.0078 117.65 26.084 118.031 26.084C118.312 26.084 118.562 26.0635 118.778 26.0225V27.9473C118.28 28.0996 117.768 28.1758 117.24 28.1758C115.459 28.1758 114.551 27.2764 114.516 25.4775V20.3535H113.127V18.4902H114.516V16.1523H117.056Z" fill="white"/>
</svg>
