<svg width="30" height="35" viewBox="0 0 30 35" fill="none" xmlns="http://www.w3.org/2000/svg">
<path d="M9.89026 15.3609H6.59351V18.7745H9.89026V15.3609ZM16.4838 15.3609H13.187V18.7745H16.4838V15.3609ZM23.0773 15.3609H19.7805V18.7745H23.0773V15.3609ZM26.374 3.41354H24.7257V0H21.4289V3.41354H8.24188V0H4.94513V3.41354H3.29675C1.46706 3.41354 0.0164838 4.94964 0.0164838 6.82708L0 30.7219C0 32.5993 1.46706 34.1354 3.29675 34.1354H26.374C28.1872 34.1354 29.6708 32.5993 29.6708 30.7219V6.82708C29.6708 4.94964 28.1872 3.41354 26.374 3.41354ZM26.374 30.7219H3.29675V11.9474H26.374V30.7219Z" fill="#454545"/>
</svg>
